USFL
nRows=257
nColumns=2
inDegrees=yes
endheader
time	tib_ant_r	
3.42619	 41.280750	
3.45946	 41.321528	
3.49272	 41.324093	
3.52598	 41.323754	
3.55925	 41.327667	
3.59251	 41.322846	
3.62578	 41.328605	
3.65904	 41.355517	
3.6923	 41.374104	
3.72557	 41.358862	
3.75883	 41.382987	
3.7921	 41.380161	
3.82536	 41.396937	
3.85862	 41.401139	
3.89189	 41.397633	
3.92515	 41.360597	
3.95842	 41.347409	
3.99168	 41.351390	
4.02494	 41.351603	
4.05821	 41.350999	
4.09147	 41.339110	
4.12474	 41.290718	
4.158	 41.263858	
4.19126	 41.231733	
4.22453	 41.209143	
4.25779	 41.205827	
4.29106	 41.207287	
4.32432	 41.204972	
4.35758	 41.209990	
4.39085	 41.210057	
4.42411	 41.214303	
4.45738	 41.200522	
4.49064	 41.209491	
4.5239	 41.244498	
4.55717	 41.164346	
4.59043	 41.127767	
4.6237	 41.106934	
4.65696	 41.063891	
4.69022	 41.008498	
4.72349	 41.006197	
4.75675	 40.986217	
4.79002	 40.990929	
4.82328	 41.001318	
4.85654	 41.004866	
4.88981	 41.000785	
4.92307	 40.995865	
4.95634	 40.956747	
4.9896	 40.936006	
5.02286	 40.964953	
5.05613	 40.951875	
5.08939	 40.976862	
5.12266	 40.968061	
5.15592	 40.862205	
5.18918	 40.817573	
5.22245	 40.741204	
5.25571	 40.697039	
5.28898	 40.608703	
5.32224	 40.533244	
5.3555	 40.595028	
5.38877	 40.526719	
5.42203	 40.458666	
5.4553	 40.465661	
5.48856	 40.391803	
5.52182	 40.312037	
5.55509	 40.308984	
5.58835	 40.240306	
5.62162	 40.181642	
5.65488	 39.982510	
5.68814	 39.870118	
5.72141	 39.816252	
5.75467	 39.720605	
5.78794	 39.655404	
5.8212	 39.641165	
5.85446	 39.581910	
5.88773	 39.449910	
5.92099	 39.441677	
5.95426	 39.248381	
5.98752	 39.106725	
6.02078	 39.011902	
6.05405	 38.664318	
6.08731	 38.606614	
6.12058	 38.485909	
6.15384	 38.393470	
6.1871	 38.309031	
6.22037	 38.260799	
6.25363	 38.201494	
6.2869	 38.188042	
6.32016	 38.149693	
6.35342	 38.094741	
6.38669	 38.076965	
6.41995	 37.949204	
6.45322	 37.965700	
6.48648	 37.999823	
6.51974	 38.034626	
6.55301	 38.061655	
6.58627	 38.088666	
6.61954	 38.089370	
6.6528	 38.074866	
6.68606	 38.042923	
6.71933	 38.015191	
6.75259	 38.009878	
6.78586	 37.946960	
6.81912	 37.916802	
6.85238	 37.866895	
6.88565	 37.838951	
6.91891	 37.826373	
6.95218	 37.796700	
6.98544	 37.785315	
7.0187	 37.769407	
7.05197	 37.714135	
7.08523	 37.660238	
7.1185	 37.629906	
7.15176	 37.574339	
7.18502	 37.571789	
7.21829	 37.586667	
7.25155	 37.587875	
7.28482	 37.581170	
7.31808	 37.565365	
7.35134	 37.559158	
7.38461	 37.544979	
7.41787	 37.533091	
7.45114	 37.538910	
7.4844	 37.523327	
7.51766	 37.509589	
7.55093	 37.520388	
7.58419	 37.516643	
7.61746	 37.527819	
7.65072	 37.522149	
7.68398	 37.508661	
7.71725	 37.513935	
7.75051	 37.523899	
7.78378	 37.515676	
7.81704	 37.499300	
7.8503	 37.499205	
7.88357	 37.473262	
7.91683	 37.482713	
7.9501	 37.462193	
7.98336	 37.461453	
8.01662	 37.457114	
8.04989	 37.475458	
8.08315	 37.474989	
8.11642	 37.479770	
8.14968	 37.507647	
8.18294	 37.509129	
8.21621	 37.504293	
8.24947	 37.467385	
8.28274	 37.465619	
8.316	 37.456577	
8.34926	 37.448647	
8.38253	 37.450365	
8.41579	 37.418665	
8.44906	 37.418578	
8.48232	 37.408840	
8.51558	 37.414178	
8.54885	 37.414565	
8.58211	 37.425180	
8.61538	 37.434345	
8.64864	 37.435248	
8.6819	 37.461664	
8.71517	 37.431524	
8.74843	 37.444702	
8.7817	 37.448848	
8.81496	 37.475858	
8.84822	 37.440977	
8.88149	 37.399325	
8.91475	 37.414253	
8.94802	 37.410573	
8.98128	 37.400156	
9.01454	 37.414835	
9.04781	 37.416363	
9.08107	 37.425776	
9.11434	 37.364624	
9.1476	 37.365483	
9.18086	 37.357456	
9.21413	 37.343241	
9.24739	 37.335410	
9.28066	 37.331433	
9.31392	 37.336794	
9.34718	 37.361925	
9.38045	 37.365531	
9.41371	 37.343827	
9.44698	 37.361802	
9.48024	 37.339722	
9.5135	 37.368555	
9.54677	 37.379536	
9.58003	 37.380186	
9.6133	 37.416748	
9.64656	 37.476284	
9.67982	 37.479359	
9.71309	 37.615457	
9.74635	 37.705589	
9.77962	 37.795957	
9.81288	 37.946258	
9.84614	 38.006468	
9.87941	 38.114347	
9.91267	 38.211063	
9.94594	 38.282703	
9.9792	 38.464669	
10.0125	 38.593006	
10.0457	 38.590564	
10.079	 38.643032	
10.1123	 38.680501	
10.1455	 38.855236	
10.1788	 39.046541	
10.212	 39.064680	
10.2453	 39.182708	
10.2786	 39.265017	
10.3118	 39.301784	
10.3451	 39.425955	
10.3784	 39.505671	
10.4116	 39.563424	
10.4449	 39.643374	
10.4782	 39.760423	
10.5114	 39.828918	
10.5447	 39.850415	
10.578	 39.850795	
10.6112	 39.849019	
10.6445	 39.807486	
10.6777	 39.835125	
10.711	 39.893692	
10.7443	 39.984403	
10.7775	 40.024379	
10.8108	 40.099337	
10.8441	 40.276187	
10.8773	 40.330108	
10.9106	 40.296548	
10.9439	 40.256708	
10.9771	 40.173405	
11.0104	 40.139114	
11.0436	 40.074507	
11.0769	 40.014352	
11.1102	 39.956838	
11.1434	 39.937113	
11.1767	 39.928230	
11.21	 39.943144	
11.2432	 40.019804	
11.2765	 40.045469	
11.3098	 40.039309	
11.343	 40.069201	
11.3763	 40.115861	
11.4096	 40.137033	
11.4428	 40.158527	
11.4761	 40.176767	
11.5093	 40.177497	
11.5426	 40.233079	
11.5759	 40.261599	
11.6091	 40.314888	
11.6424	 40.346240	
11.6757	 40.332977	
11.7089	 40.336809	
11.7422	 40.339057	
11.7755	 40.359128	
11.8087	 40.390424	
11.842	 40.438332	
11.8752	 40.456995	
11.9085	 40.507634	
11.9418	 40.525757	
